<svg xmlns="http://www.w3.org/2000/svg" viewBox="0 0 1024 420" width="1024" height="420" role="img" aria-label="MANIGINAM — Port Allen, LA">
<g transform="translate(86.85 0)"><g fill="#3C3F46"><path transform="translate(0.00 240.00) scale(0.15000 -0.15000)" d="M66 0V700H311L432 90H450L571 700H816V0H688V603H670L550 0H332L212 603H194V0Z"/><path transform="translate(134.30 240.00) scale(0.15000 -0.15000)" d="M18 0 202 700H432L616 0H480L442 154H192L154 0ZM223 276H411L326 617H308Z"/><path transform="translate(231.40 240.00) scale(0.15000 -0.15000)" d="M66 0V700H317L456 90H474V700H604V0H353L214 610H196V0Z"/><path transform="translate(333.90 240.00) scale(0.15000 -0.15000)" d="M66 0V700H198V0Z"/></g><g fill="#B9A3F2"><path transform="translate(375.50 240.00) scale(0.15000 -0.15000)" d="M308 -14Q236 -14 177.5 18.5Q119 51 84.5 113.5Q50 176 50 266V434Q50 569 126.0 641.5Q202 714 332 714Q461 714 531.5 645.5Q602 577 602 460V456H472V464Q472 501 456.5 531.0Q441 561 410.0 578.5Q379 596 332 596Q262 596 222.0 553.0Q182 510 182 436V264Q182 191 222.0 146.5Q262 102 334 102Q406 102 439.0 140.0Q472 178 472 236V246H306V358H602V0H480V67H462Q455 50 439.5 31.0Q424 12 393.0 -1.0Q362 -14 308 -14Z"/><path transform="translate(476.80 240.00) scale(0.15000 -0.15000)" d="M66 0V700H198V0Z"/><path transform="translate(518.40 240.00) scale(0.15000 -0.15000)" d="M66 0V700H317L456 90H474V700H604V0H353L214 610H196V0Z"/><path transform="translate(620.90 240.00) scale(0.15000 -0.15000)" d="M18 0 202 700H432L616 0H480L442 154H192L154 0ZM223 276H411L326 617H308Z"/></g><g fill="#FF8E7A"><path transform="translate(718.00 240.00) scale(0.15000 -0.15000)" d="M66 0V700H311L432 90H450L571 700H816V0H688V603H670L550 0H332L212 603H194V0Z"/></g></g>
<g transform="translate(231.76 0)"><g fill="#8A9A90"><path transform="translate(0.00 320.00) scale(0.04400 -0.04400)" d="M66 0V700H354Q420 700 470.5 673.5Q521 647 549.5 599.0Q578 551 578 485V471Q578 406 548.5 357.5Q519 309 468.5 282.5Q418 256 354 256H198V0ZM198 376H341Q388 376 417.0 402.0Q446 428 446 473V483Q446 528 417.0 554.0Q388 580 341 580H198Z"/><path transform="translate(44.58 320.00) scale(0.04400 -0.04400)" d="M338 -14Q206 -14 128.0 58.5Q50 131 50 266V434Q50 569 128.0 641.5Q206 714 338 714Q470 714 548.0 641.5Q626 569 626 434V266Q626 131 548.0 58.5Q470 -14 338 -14ZM338 104Q412 104 453.0 147.0Q494 190 494 262V438Q494 510 453.0 553.0Q412 596 338 596Q265 596 223.5 553.0Q182 510 182 438V262Q182 190 223.5 147.0Q265 104 338 104Z"/><path transform="translate(92.32 320.00) scale(0.04400 -0.04400)" d="M66 0V700H370Q436 700 485.0 677.0Q534 654 561.0 612.0Q588 570 588 513V501Q588 438 558.0 399.0Q528 360 484 342V324Q524 322 546.0 296.5Q568 271 568 229V0H436V210Q436 234 423.5 249.0Q411 264 382 264H198V0ZM198 384H356Q403 384 429.5 409.5Q456 435 456 477V487Q456 529 430.0 554.5Q404 580 356 580H198Z"/><path transform="translate(138.13 320.00) scale(0.04400 -0.04400)" d="M228 0V580H24V700H564V580H360V0Z"/><path transform="translate(211.18 320.00) scale(0.04400 -0.04400)" d="M18 0 202 700H432L616 0H480L442 154H192L154 0ZM223 276H411L326 617H308Z"/><path transform="translate(257.07 320.00) scale(0.04400 -0.04400)" d="M66 0V700H198V120H518V0Z"/><path transform="translate(298.92 320.00) scale(0.04400 -0.04400)" d="M66 0V700H198V120H518V0Z"/><path transform="translate(340.77 320.00) scale(0.04400 -0.04400)" d="M66 0V700H516V580H198V413H488V293H198V120H522V0Z"/><path transform="translate(383.14 320.00) scale(0.04400 -0.04400)" d="M66 0V700H317L456 90H474V700H604V0H353L214 610H196V0Z"/><path transform="translate(430.62 320.00) scale(0.04400 -0.04400)" d="M79 -147V-79H118Q164 -79 164 -33V-1H147Q107 -1 80.5 23.0Q54 47 54 84Q54 124 80.5 149.0Q107 174 147 174Q188 174 214.0 148.5Q240 123 240 80V-35Q240 -147 128 -147Z"/><path transform="translate(490.74 320.00) scale(0.04400 -0.04400)" d="M66 0V700H198V120H518V0Z"/><path transform="translate(532.58 320.00) scale(0.04400 -0.04400)" d="M18 0 202 700H432L616 0H480L442 154H192L154 0ZM223 276H411L326 617H308Z"/></g></g>
</svg>