<svg xmlns="http://www.w3.org/2000/svg" viewBox="0 0 588 130" role="img" aria-label="MANIGINAM"><g transform="translate(10 8)"><g fill="#9698A6"><path transform="translate(0.00 100.00) scale(0.10000 -0.10000)" d="M66 0V700H311L432 90H450L571 700H816V0H688V603H670L550 0H332L212 603H194V0Z"/><path transform="translate(89.70 100.00) scale(0.10000 -0.10000)" d="M18 0 202 700H432L616 0H480L442 154H192L154 0ZM223 276H411L326 617H308Z"/><path transform="translate(154.60 100.00) scale(0.10000 -0.10000)" d="M66 0V700H317L456 90H474V700H604V0H353L214 610H196V0Z"/><path transform="translate(223.10 100.00) scale(0.10000 -0.10000)" d="M66 0V700H198V0Z"/></g><g fill="#b026ff"><path transform="translate(251.00 100.00) scale(0.10000 -0.10000)" d="M308 -14Q236 -14 177.5 18.5Q119 51 84.5 113.5Q50 176 50 266V434Q50 569 126.0 641.5Q202 714 332 714Q461 714 531.5 645.5Q602 577 602 460V456H472V464Q472 501 456.5 531.0Q441 561 410.0 578.5Q379 596 332 596Q262 596 222.0 553.0Q182 510 182 436V264Q182 191 222.0 146.5Q262 102 334 102Q406 102 439.0 140.0Q472 178 472 236V246H306V358H602V0H480V67H462Q455 50 439.5 31.0Q424 12 393.0 -1.0Q362 -14 308 -14Z"/><path transform="translate(318.70 100.00) scale(0.10000 -0.10000)" d="M66 0V700H198V0Z"/><path transform="translate(346.60 100.00) scale(0.10000 -0.10000)" d="M66 0V700H317L456 90H474V700H604V0H353L214 610H196V0Z"/><path transform="translate(415.10 100.00) scale(0.10000 -0.10000)" d="M18 0 202 700H432L616 0H480L442 154H192L154 0ZM223 276H411L326 617H308Z"/></g><g fill="#ff4030"><path transform="translate(480.00 100.00) scale(0.10000 -0.10000)" d="M66 0V700H311L432 90H450L571 700H816V0H688V603H670L550 0H332L212 603H194V0Z"/></g></g></svg>